<?xml version="1.0" encoding="utf-8"?>
<!-- Generator: Adobe Illustrator 16.0.0, SVG Export Plug-In . SVG Version: 6.00 Build 0)  -->
<!DOCTYPE svg PUBLIC "-//W3C//DTD SVG 1.1//EN" "http://www.w3.org/Graphics/SVG/1.1/DTD/svg11.dtd">
<svg version="1.1" id="Layer_1" xmlns="http://www.w3.org/2000/svg" xmlns:xlink="http://www.w3.org/1999/xlink" x="0px" y="0px"
	 width="600px" height="600px" viewBox="0 0 600 600" enable-background="new 0 0 600 600" xml:space="preserve">
<g>
	<g>
		<defs>
			<rect id="SVGID_1_" x="-12.182" y="89" width="600" height="600"/>
		</defs>
		<clipPath id="SVGID_2_">
			<use xlink:href="#SVGID_1_"  overflow="visible"/>
		</clipPath>
		<path clip-path="url(#SVGID_2_)" fill="#2E2E2E" d="M149.25,273.617c32.663-19.32,65.325-38.64,97.988-57.958v258.51H149.25
			V273.617z"/>
	</g>
	<g>
		<defs>
			<rect id="SVGID_3_" x="-12.182" y="89" width="600" height="600"/>
		</defs>
		<clipPath id="SVGID_4_">
			<use xlink:href="#SVGID_3_"  overflow="visible"/>
		</clipPath>
		<path clip-path="url(#SVGID_4_)" fill="#2E2E2E" d="M251.818,215.562c32.663-20.213,65.325-40.427,97.989-60.64v270.465h-97.989
			V215.562L251.818,215.562z"/>
	</g>
	<g>
		<defs>
			<rect id="SVGID_5_" x="-12.182" y="89" width="600" height="600"/>
		</defs>
		<clipPath id="SVGID_6_">
			<use xlink:href="#SVGID_5_"  overflow="visible"/>
		</clipPath>
		<path clip-path="url(#SVGID_6_)" fill="#2E2E2E" d="M454.676,237.253c-32.604-28.952-65.207-57.903-97.811-86.855v274.989h97.987
			C454.793,362.676,454.734,299.965,454.676,237.253"/>
	</g>
	<g>
		<defs>
			<rect id="SVGID_7_" x="-12.182" y="89" width="600" height="600"/>
		</defs>
		<clipPath id="SVGID_8_">
			<use xlink:href="#SVGID_7_"  overflow="visible"/>
		</clipPath>
		<path clip-path="url(#SVGID_8_)" fill="#2E2E2E" d="M384.994,120.315C295.068,175.213,205.145,230.11,115.22,285.008
			c0.183-13.562,0.365-27.122,0.548-40.683c80.491-48.307,160.982-96.613,241.474-144.919
			C366.492,106.376,375.744,113.345,384.994,120.315"/>
	</g>
	<g>
		<defs>
			<rect id="SVGID_9_" x="-12.182" y="89" width="600" height="600"/>
		</defs>
		<clipPath id="SVGID_10_">
			<use xlink:href="#SVGID_9_"  overflow="visible"/>
		</clipPath>
		<path clip-path="url(#SVGID_10_)" fill="#2E2E2E" d="M331.094,115.094c46.144,40.509,92.285,81.018,138.426,121.528
			c4.06-11.561,8.117-23.123,12.175-34.684c-40.07-35.025-80.14-70.05-120.209-105.074
			C351.354,102.94,341.225,109.017,331.094,115.094"/>
	</g>
	<g>
		<defs>
			<rect id="SVGID_11_" x="-12.182" y="89" width="600" height="600"/>
		</defs>
		<clipPath id="SVGID_12_">
			<use xlink:href="#SVGID_11_"  overflow="visible"/>
		</clipPath>
		<path clip-path="url(#SVGID_12_)" fill="#2E2E2E" d="M216.842,203.963c-13.757,5.673-27.514,11.345-41.271,17.018
			c-5.69,2.346-11.919-1.882-11.919-8.091v-30.402c0-4.826,3.873-8.739,8.65-8.739h50.363c6.962,0,11.071,7.885,7.132,13.684
			c-3.03,4.461-6.061,8.923-9.092,13.384C219.75,202.224,218.406,203.318,216.842,203.963"/>
	</g>
	<g>
		<defs>
			<rect id="SVGID_13_" x="-12.182" y="89" width="600" height="600"/>
		</defs>
		<clipPath id="SVGID_14_">
			<use xlink:href="#SVGID_13_"  overflow="visible"/>
		</clipPath>
		<path clip-path="url(#SVGID_14_)" fill="#2E2E2E" d="M220.243,169.249h-46.239c-4.394,0-7.957-3.562-7.957-7.957v-6.309
			c0-4.395,3.563-7.957,7.957-7.957h46.239c4.395,0,7.957,3.562,7.957,7.957v6.309C228.2,165.687,224.638,169.249,220.243,169.249"
			/>
	</g>
</g>
<rect x="288.583" y="285.375" fill="none" stroke="#2E2E2E" stroke-width="3" stroke-miterlimit="10" width="38.107" height="119.412"/>
<g>
	<g>
		<defs>
			<rect id="SVGID_15_" x="-12.182" y="89" width="600" height="600"/>
		</defs>
		<clipPath id="SVGID_16_">
			<use xlink:href="#SVGID_15_"  overflow="visible"/>
		</clipPath>
	</g>
	<g>
		<defs>
			<rect id="SVGID_17_" x="-12.182" y="89" width="600" height="600"/>
		</defs>
		<clipPath id="SVGID_18_">
			<use xlink:href="#SVGID_17_"  overflow="visible"/>
		</clipPath>
	</g>
	<g>
		<defs>
			<rect id="SVGID_19_" x="-12.182" y="89" width="600" height="600"/>
		</defs>
		<clipPath id="SVGID_20_">
			<use xlink:href="#SVGID_19_"  overflow="visible"/>
		</clipPath>
		<path clip-path="url(#SVGID_20_)" fill="none" stroke="#2E2E2E" stroke-width="3" stroke-miterlimit="10" d="M327.896,225.458
			c5.157,2.702,10.315,5.404,15.475,8.107c0.318,14.862,0.637,29.723,0.957,44.584c-11.348,6.552-22.695,13.102-34.041,19.655
			c-12.918-7.195-25.834-14.389-38.752-21.584c0.191-13.703,0.382-27.407,0.573-41.111c5.286-3.282,10.572-6.563,15.858-9.844
			c3.312,0.016,6.624,0.032,9.936,0.048c6.178,0.03,12.355,0.06,18.533,0.09C320.256,225.421,324.076,225.44,327.896,225.458z"/>
	</g>
	<g>
		<defs>
			<rect id="SVGID_21_" x="-12.182" y="89" width="600" height="600"/>
		</defs>
		<clipPath id="SVGID_22_">
			<use xlink:href="#SVGID_21_"  overflow="visible"/>
		</clipPath>
	</g>
	<g>
		<defs>
			<rect id="SVGID_23_" x="-12.182" y="89" width="600" height="600"/>
		</defs>
		<clipPath id="SVGID_24_">
			<use xlink:href="#SVGID_23_"  overflow="visible"/>
		</clipPath>
		<path clip-path="url(#SVGID_24_)" fill="#2E2E2E" d="M337.836,270.821l-28.965,15.812c-0.521,0.283-0.713,0.939-0.432,1.465
			l0.549,1.025c0.278,0.525,0.93,0.721,1.449,0.438l28.965-15.813c0.518-0.283,0.713-0.938,0.432-1.464l-0.549-1.026
			C339.004,270.733,338.355,270.537,337.836,270.821"/>
	</g>
	<g>
		<defs>
			<rect id="SVGID_25_" x="-12.182" y="89" width="600" height="600"/>
		</defs>
		<clipPath id="SVGID_26_">
			<use xlink:href="#SVGID_25_"  overflow="visible"/>
		</clipPath>
		<path clip-path="url(#SVGID_26_)" fill="#2E2E2E" d="M322.475,266.119h-29.085c-2.604,0-4.714-2.109-4.714-4.713V226.66
			c0-2.603,2.11-4.713,4.714-4.713h29.085c2.603,0,4.714,2.11,4.714,4.713v34.746C327.188,264.009,325.076,266.119,322.475,266.119"
			/>
	</g>
	<g>
		<defs>
			<rect id="SVGID_27_" x="-12.182" y="89" width="600" height="600"/>
		</defs>
		<clipPath id="SVGID_28_">
			<use xlink:href="#SVGID_27_"  overflow="visible"/>
		</clipPath>
	</g>
</g>
<g>
	<g>
		<defs>
			<rect id="SVGID_29_" x="-12.182" y="89" width="600" height="600"/>
		</defs>
		<clipPath id="SVGID_30_">
			<use xlink:href="#SVGID_29_"  overflow="visible"/>
		</clipPath>
	</g>
	<g>
		<defs>
			<rect id="SVGID_31_" x="-12.182" y="89" width="600" height="600"/>
		</defs>
		<clipPath id="SVGID_32_">
			<use xlink:href="#SVGID_31_"  overflow="visible"/>
		</clipPath>
	</g>
	<g>
		<defs>
			<rect id="SVGID_33_" x="-12.182" y="89" width="600" height="600"/>
		</defs>
		<clipPath id="SVGID_34_">
			<use xlink:href="#SVGID_33_"  overflow="visible"/>
		</clipPath>
	</g>
	<g>
		<defs>
			<rect id="SVGID_35_" x="-12.182" y="89" width="600" height="600"/>
		</defs>
		<clipPath id="SVGID_36_">
			<use xlink:href="#SVGID_35_"  overflow="visible"/>
		</clipPath>
	</g>
	<g>
		<defs>
			<rect id="SVGID_37_" x="-12.182" y="89" width="600" height="600"/>
		</defs>
		<clipPath id="SVGID_38_">
			<use xlink:href="#SVGID_37_"  overflow="visible"/>
		</clipPath>
		<rect x="179.865" y="372.506" clip-path="url(#SVGID_38_)" fill="#2E2E2E" width="53.556" height="8.971"/>
	</g>
	<g>
		<defs>
			<rect id="SVGID_39_" x="-12.182" y="89" width="600" height="600"/>
		</defs>
		<clipPath id="SVGID_40_">
			<use xlink:href="#SVGID_39_"  overflow="visible"/>
		</clipPath>
		<rect x="179.865" y="348.506" clip-path="url(#SVGID_40_)" fill="#2E2E2E" width="53.556" height="4.875"/>
	</g>
	<g>
		<defs>
			<rect id="SVGID_41_" x="-12.182" y="89" width="600" height="600"/>
		</defs>
		<clipPath id="SVGID_42_">
			<use xlink:href="#SVGID_41_"  overflow="visible"/>
		</clipPath>
		<rect x="149.429" y="474.166" clip-path="url(#SVGID_42_)" fill="#FFFFFF" width="118.306" height="15.041"/>
	</g>
	<g>
		<defs>
			<rect id="SVGID_43_" x="-12.182" y="89" width="600" height="600"/>
		</defs>
		<clipPath id="SVGID_44_">
			<use xlink:href="#SVGID_43_"  overflow="visible"/>
		</clipPath>
	</g>
	<g>
		<defs>
			<rect id="SVGID_45_" x="-12.182" y="89" width="600" height="600"/>
		</defs>
		<clipPath id="SVGID_46_">
			<use xlink:href="#SVGID_45_"  overflow="visible"/>
		</clipPath>
	</g>
</g>
<g>
	<g>
		<defs>
			<rect id="SVGID_47_" x="-12.182" y="89" width="600" height="600"/>
		</defs>
		<clipPath id="SVGID_48_">
			<use xlink:href="#SVGID_47_"  overflow="visible"/>
		</clipPath>
	</g>
</g>
</svg>
